# xmcd CD Database Entry
#
# Track frame offsets:
# 150
# 8792
# 21297
# 30725
# 44282
# 55920
# 67390
# 76512
# 88265
#
# Disc length: 1332 seconds
#
# Revision: 2
# Processed by: cddbd v1.4PL0 Copyright (c) Steve Scherf et al.
# Submitted via: tcd 2.0b
#
DISCID=6e053209
DTITLE=Chris Sparks - Chris Sparks
DYEAR=1900
DGENRE=
TTITLE0=Drinkin' My Blues
TTITLE1=Born to Ride
TTITLE2=Barstool Cowboy
TTITLE3=I Can't Take It That Slow
TTITLE4=Wearin' a New One
TTITLE5=I Am My Own Man
TTITLE6=Let 'Em Ride
TTITLE7=I Don't Need Your Love
TTITLE8=I Can't Write a Love Song
EXTD=
EXTT0=
EXTT1=
EXTT2=
EXTT3=
EXTT4=
EXTT5=
EXTT6=
EXTT7=
EXTT8=
PLAYORDER=
